{
  "accessors": [
    {
      "bufferView": 0,
      "componentType": 5126,
      "count": 440,
      "max": [
        0.9830633997917175,
        0.08881109952926636,
        0.9557638168334961
      ],
      "min": [
        -0.9830633997917175,
        -0.08881109952926636,
        -0.9557638168334961
      ],
      "type": "VEC3"
    },
    {
      "bufferView": 1,
      "componentType": 5126,
      "count": 440,
      "type": "VEC3"
    },
    {
      "bufferView": 2,
      "componentType": 5126,
      "count": 440,
      "type": "VEC2"
    },
    {
      "bufferView": 3,
      "componentType": 5125,
      "count": 600,
      "type": "SCALAR"
    },
    {
      "bufferView": 4,
      "componentType": 5126,
      "count": 440,
      "max": [
        0.9830633997917175,
        0.08881109952926636,
        0.9557638168334961
      ],
      "min": [
        -0.9830633997917175,
        -0.08881109952926636,
        -0.9557638168334961
      ],
      "type": "VEC3"
    },
    {
      "bufferView": 5,
      "componentType": 5126,
      "count": 440,
      "type": "VEC3"
    },
    {
      "bufferView": 6,
      "componentType": 5126,
      "count": 440,
      "type": "VEC2"
    },
    {
      "bufferView": 7,
      "componentType": 5125,
      "count": 600,
      "type": "SCALAR"
    },
    {
      "bufferView": 8,
      "componentType": 5126,
      "count": 440,
      "max": [
        0.7375808358192444,
        1.2316641807556152,
        0.6992936134338379
      ],
      "min": [
        -0.7375808358192444,
        -1.2316641807556152,
        -0.6992936134338379
      ],
      "type": "VEC3"
    },
    {
      "bufferView": 9,
      "componentType": 5126,
      "count": 440,
      "type": "VEC3"
    },
    {
      "bufferView": 10,
      "componentType": 5126,
      "count": 440,
      "type": "VEC2"
    },
    {
      "bufferView": 11,
      "componentType": 5125,
      "count": 600,
      "type": "SCALAR"
    }
  ],
  "asset": {
    "generator": "Prisma3D Pro",
    "version": "2.0"
  },
  "bufferViews": [
    {
      "buffer": 0,
      "byteLength": 5280,
      "target": 34962
    },
    {
      "buffer": 1,
      "byteLength": 5280,
      "target": 34962
    },
    {
      "buffer": 2,
      "byteLength": 3520,
      "target": 34962
    },
    {
      "buffer": 3,
      "byteLength": 2400,
      "target": 34963
    },
    {
      "buffer": 4,
      "byteLength": 5280,
      "target": 34962
    },
    {
      "buffer": 5,
      "byteLength": 5280,
      "target": 34962
    },
    {
      "buffer": 6,
      "byteLength": 3520,
      "target": 34962
    },
    {
      "buffer": 7,
      "byteLength": 2400,
      "target": 34963
    },
    {
      "buffer": 8,
      "byteLength": 5280,
      "target": 34962
    },
    {
      "buffer": 9,
      "byteLength": 5280,
      "target": 34962
    },
    {
      "buffer": 10,
      "byteLength": 3520,
      "target": 34962
    },
    {
      "buffer": 11,
      "byteLength": 2400,
      "target": 34963
    }
  ],
  "buffers": [
    {
      "byteLength": 5280,
      "uri": "data:application/octet-stream;base64,"
    },
    {
      "byteLength": 5280,
      "uri": "data:application/octet-stream;base64,"
    },
    {
      "byteLength": 3520,
      "uri": "data:application/octet-stream;base64,"
    },
    {
      "byteLength": 2400,
      "uri": "data:application/octet-stream;base64,"
    },
    {
      "byteLength": 5280,
      "uri": "data:application/octet-stream;base64,"
    },
    {
      "byteLength": 5280,
      "uri": "data:application/octet-stream;base64,"
    },
    {
      "byteLength": 3520,
      "uri": "data:application/octet-stream;base64,"
    },
    {
      "byteLength": 2400,
      "uri": "data:application/octet-stream;base64,"
    },
    {
      "byteLength": 5280,
      "uri": "data:application/octet-stream;base64,"
    },
    {
      "byteLength": 5280,
      "uri": "data:application/octet-stream;base64,"
    },
    {
      "byteLength": 3520,
      "uri": "data:application/octet-stream;base64,"
    },
    {
      "byteLength": 2400,
      "uri": "data:application/octet-stream;base64,"
    }
  ],
  "materials": [
    {
      "doubleSided": true,
      "pbrMetallicRoughness": {
        "baseColorFactor": [
          0.19607843458652496,
          0.5960784554481506,
          0.8588235378265381,
          1.0
        ],
        "metallicFactor": 0.0,
        "roughnessFactor": 0.0
      }
    },
    {
      "doubleSided": true,
      "pbrMetallicRoughness": {
        "baseColorFactor": [
          0.19607843458652496,
          0.5960784554481506,
          0.8588235378265381,
          1.0
        ],
        "metallicFactor": 0.0,
        "roughnessFactor": 0.0
      }
    },
    {
      "doubleSided": true,
      "pbrMetallicRoughness": {
        "baseColorFactor": [
          0.19607843458652496,
          0.5960784554481506,
          0.8588235378265381,
          1.0
        ],
        "metallicFactor": 0.0,
        "roughnessFactor": 0.0
      }
    }
  ],
  "meshes": [
    {
      "primitives": [
        {
          "attributes": {
            "NORMAL": 1,
            "POSITION": 0,
            "TEXCOORD_0": 2
          },
          "indices": 3,
          "material": 0,
          "mode": 4
        }
      ]
    },
    {
      "primitives": [
        {
          "attributes": {
            "NORMAL": 5,
            "POSITION": 4,
            "TEXCOORD_0": 6
          },
          "indices": 7,
          "material": 1,
          "mode": 4
        }
      ]
    },
    {
      "primitives": [
        {
          "attributes": {
            "NORMAL": 9,
            "POSITION": 8,
            "TEXCOORD_0": 10
          },
          "indices": 11,
          "material": 2,
          "mode": 4
        }
      ]
    }
  ],
  "nodes": [
    {
      "children": [
        3,
        2,
        1
      ],
      "name": "Цилиндр",
      "rotation": [
        0.0,
        -0.0,
        -0.0,
        1.0
      ],
      "scale": [
        1.0,
        1.0,
        1.0
      ],
      "translation": [
        -0.0,
        0.0,
        0.0
      ]
    },
    {
      "mesh": 0,
      "name": "Цилиндр",
      "rotation": [
        0.0,
        -0.0,
        -0.0,
        1.0
      ],
      "scale": [
        1.0,
        1.0,
        1.0
      ],
      "translation": [
        -0.0,
        2.431049108505249,
        0.0
      ]
    },
    {
      "mesh": 1,
      "name": "Цилиндр",
      "rotation": [
        0.0,
        -0.0,
        -0.0,
        1.0
      ],
      "scale": [
        1.0,
        1.0,
        1.0
      ],
      "translation": [
        -0.0,
        0.09927248954772949,
        0.0
      ]
    },
    {
      "mesh": 2,
      "name": "Цилиндр",
      "rotation": [
        0.0,
        -0.0,
        -0.0,
        1.0
      ],
      "scale": [
        1.0,
        1.0,
        1.0
      ],
      "translation": [
        -0.0,
        1.2880080938339233,
        0.0
      ]
    }
  ],
  "scenes": [
    {
      "nodes": [
        0
      ]
    }
  ]
}
