{
  "accessors": [
    {
      "bufferView": 0,
      "componentType": 5126,
      "count": 1104,
      "max": [
        0.5,
        0.5,
        0.5
      ],
      "min": [
        -0.5,
        -0.5,
        -0.5
      ],
      "type": "VEC3"
    },
    {
      "bufferView": 1,
      "componentType": 5126,
      "count": 1104,
      "type": "VEC3"
    },
    {
      "bufferView": 2,
      "componentType": 5126,
      "count": 1104,
      "type": "VEC2"
    },
    {
      "bufferView": 3,
      "componentType": 5125,
      "count": 1584,
      "type": "SCALAR"
    },
    {
      "bufferView": 4,
      "componentType": 5126,
      "count": 440,
      "max": [
        0.5,
        0.5,
        0.5
      ],
      "min": [
        -0.5,
        -0.5,
        -0.5
      ],
      "type": "VEC3"
    },
    {
      "bufferView": 5,
      "componentType": 5126,
      "count": 440,
      "type": "VEC3"
    },
    {
      "bufferView": 6,
      "componentType": 5126,
      "count": 440,
      "type": "VEC2"
    },
    {
      "bufferView": 7,
      "componentType": 5125,
      "count": 600,
      "type": "SCALAR"
    }
  ],
  "asset": {
    "generator": "Prisma3D Pro",
    "version": "2.0"
  },
  "bufferViews": [
    {
      "buffer": 0,
      "byteLength": 13248,
      "target": 34962
    },
    {
      "buffer": 1,
      "byteLength": 13248,
      "target": 34962
    },
    {
      "buffer": 2,
      "byteLength": 8832,
      "target": 34962
    },
    {
      "buffer": 3,
      "byteLength": 6336,
      "target": 34963
    },
    {
      "buffer": 4,
      "byteLength": 5280,
      "target": 34962
    },
    {
      "buffer": 5,
      "byteLength": 5280,
      "target": 34962
    },
    {
      "buffer": 6,
      "byteLength": 3520,
      "target": 34962
    },
    {
      "buffer": 7,
      "byteLength": 2400,
      "target": 34963
    }
  ],
  "buffers": [
    {
      "byteLength": 13248,
      "uri": "data:application/octet-stream;base64,"
    },
    {
      "byteLength": 13248,
      "uri": "data:application/octet-stream;base64,"
    },
    {
      "byteLength": 8832,
      "uri": "data:application/octet-stream;base64,"
    },
    {
      "byteLength": 6336,
      "uri": "data:application/octet-stream;base64,"
    },
    {
      "byteLength": 5280,
      "uri": "data:application/octet-stream;base64,"
    },
    {
      "byteLength": 5280,
      "uri": "data:application/octet-stream;base64,"
    },
    {
      "byteLength": 3520,
      "uri": "data:application/octet-stream;base64,"
    },
    {
      "byteLength": 2400,
      "uri": "data:application/octet-stream;base64,"
    }
  ],
  "materials": [
    {
      "doubleSided": true,
      "pbrMetallicRoughness": {
        "baseColorFactor": [
          0.16078431904315948,
          0.501960813999176,
          0.7254902124404907,
          1.0
        ],
        "metallicFactor": 0.75,
        "roughnessFactor": 0.0
      }
    },
    {
      "doubleSided": true,
      "pbrMetallicRoughness": {
        "baseColorFactor": [
          0.7529411911964417,
          0.2235294133424759,
          0.1725490242242813,
          1.0
        ],
        "metallicFactor": 0.0,
        "roughnessFactor": 0.0
      }
    }
  ],
  "meshes": [
    {
      "primitives": [
        {
          "attributes": {
            "NORMAL": 1,
            "POSITION": 0,
            "TEXCOORD_0": 2
          },
          "indices": 3,
          "material": 0,
          "mode": 4
        }
      ]
    },
    {
      "primitives": [
        {
          "attributes": {
            "NORMAL": 5,
            "POSITION": 4,
            "TEXCOORD_0": 6
          },
          "indices": 7,
          "material": 1,
          "mode": 4
        }
      ]
    }
  ],
  "nodes": [
    {
      "mesh": 0,
      "name": "Сфера",
      "rotation": [
        0.0,
        -0.0,
        -0.0,
        1.0
      ],
      "scale": [
        1.0,
        1.0,
        1.0
      ],
      "translation": [
        -0.0,
        1.826233983039856,
        -0.009942017495632172
      ]
    },
    {
      "mesh": 1,
      "name": "Цилиндр",
      "rotation": [
        0.0,
        0.695180356502533,
        -0.0,
        0.7188353538513184
      ],
      "scale": [
        1.0,
        1.5091700553894043,
        1.0
      ],
      "translation": [
        -0.0,
        0.6642325520515442,
        0.0
      ]
    }
  ],
  "scenes": [
    {
      "nodes": [
        0,
        1
      ]
    }
  ]
}
